<svg id="svg" xmlns="http://www.w3.org/2000/svg" xmlns:xlink="http://www.w3.org/1999/xlink" width="400" height="400" viewBox="0, 0, 400,400"><g id="svgg"><path id="path0" d="M84.069 109.280 C 74.695 110.287,67.220 116.328,63.594 125.824 L 62.778 127.963 62.680 199.043 C 62.570 278.174,62.372 271.913,65.164 277.593 C 68.188 283.745,73.751 288.262,80.747 290.245 C 84.408 291.283,315.430 291.311,319.259 290.274 C 327.911 287.931,334.873 280.926,336.831 272.593 C 337.300 270.597,337.397 266.879,337.402 250.843 L 337.407 231.501 311.759 231.399 L 286.111 231.296 283.333 229.953 C 278.547 227.638,275.711 224.489,274.095 219.692 C 272.969 216.349,272.916 184.369,274.031 180.787 C 275.793 175.126,280.181 170.811,285.901 169.115 C 287.662 168.593,290.988 168.519,312.660 168.519 L 337.407 168.519 337.401 149.537 C 337.394 128.081,337.337 127.499,334.748 122.273 C 331.871 116.464,326.158 111.794,319.444 109.764 C 317.046 109.038,90.650 108.573,84.069 109.280 M102.308 145.470 L 103.519 146.681 103.519 200.000 L 103.519 253.319 102.308 254.530 C 99.931 256.908,92.310 256.381,90.947 253.744 C 89.923 251.764,90.262 147.073,91.296 145.914 C 93.376 143.583,100.149 143.310,102.308 145.470 M291.632 174.818 C 286.403 175.882,282.007 179.849,280.581 184.789 C 279.720 187.770,279.725 212.274,280.587 215.175 C 282.032 220.043,285.841 223.661,290.911 224.981 C 292.790 225.470,296.490 225.556,315.741 225.556 C 334.991 225.556,338.692 225.470,340.570 224.981 C 344.949 223.840,348.205 221.154,350.129 217.093 L 351.296 214.630 351.417 201.667 C 351.593 182.787,350.605 179.761,343.046 176.024 L 340.225 174.630 316.686 174.570 C 303.740 174.537,292.466 174.649,291.632 174.818 M312.080 190.297 C 322.666 195.703,318.352 211.602,306.556 210.655 C 296.948 209.884,293.280 198.334,300.597 191.893 C 303.644 189.210,308.602 188.521,312.080 190.297 " stroke="none" fill="#000000" fill-rule="evenodd"></path></g></svg>