<svg id="svg" xmlns="http://www.w3.org/2000/svg" xmlns:xlink="http://www.w3.org/1999/xlink" width="400" height="400" viewBox="0, 0, 400,400"><g id="svgg"><path id="path0" d="M192.222 3.377 C 72.442 7.571,-16.185 119.373,6.703 237.407 C 31.311 364.317,170.480 433.681,286.481 376.852 C 397.758 322.339,431.585 180.257,356.874 81.188 C 321.941 34.865,265.024 4.982,208.889 3.492 C 205.120 3.392,201.370 3.272,200.556 3.224 C 199.741 3.176,195.991 3.245,192.222 3.377 M216.296 35.026 C 346.925 48.312,411.329 201.124,329.455 303.519 C 253.368 398.675,103.869 381.790,50.714 272.037 C -5.395 156.185,88.341 22.012,216.296 35.026 M195.764 50.093 C 195.430 52.634,186.296 157.507,186.296 158.807 C 186.296 159.458,187.117 163.035,188.120 166.755 C 189.657 172.459,191.507 181.825,191.472 183.726 C 191.466 184.019,190.781 184.676,189.949 185.185 C 184.888 188.284,181.361 195.638,182.057 201.646 C 183.610 215.068,198.227 222.237,209.676 215.192 L 211.486 214.078 216.762 217.290 C 219.663 219.057,223.941 221.910,226.268 223.630 C 228.596 225.351,231.012 226.973,231.639 227.234 C 234.003 228.221,324.457 261.851,324.722 261.842 C 325.220 261.824,327.173 257.024,326.818 256.689 C 326.633 256.514,307.086 245.268,283.379 231.698 L 240.277 207.024 235.787 205.916 C 228.580 204.137,218.150 200.344,217.988 199.444 C 217.166 194.872,216.835 193.653,215.932 191.863 C 214.660 189.344,212.103 186.440,210.052 185.185 C 209.220 184.676,208.534 184.009,208.529 183.704 C 208.495 181.824,210.282 172.833,211.908 166.697 L 213.814 159.505 209.110 105.771 C 206.522 76.217,204.309 51.245,204.192 50.278 L 203.979 48.519 199.975 48.519 L 195.971 48.519 195.764 50.093 " stroke="none" fill="#000000" fill-rule="evenodd"></path></g></svg>