<svg id="svg" version="1.1" xmlns="http://www.w3.org/2000/svg" xmlns:xlink="http://www.w3.org/1999/xlink" width="400" height="400" viewBox="0, 0, 400,400"><g id="svgg"><path id="path0" d="M190.370 71.738 C 109.297 77.940,17.464 149.162,1.290 218.382 L 0.003 223.889 0.001 237.823 C -0.001 259.280,0.387 260.392,16.045 283.889 C 27.103 300.482,29.944 303.727,38.314 309.329 C 80.019 337.242,163.382 318.285,224.657 266.954 C 226.709 265.234,228.573 263.714,228.798 263.575 C 229.024 263.435,232.178 265.211,235.808 267.521 C 304.068 310.954,366.020 332.167,380.221 316.968 C 381.436 315.667,397.552 291.153,399.125 288.213 C 400.722 285.227,400.320 275.532,398.408 270.926 C 388.538 247.146,349.829 210.250,298.060 175.279 L 289.545 169.527 289.756 167.634 C 291.662 150.504,290.193 139.045,284.614 127.520 C 281.455 120.993,264.982 96.855,260.585 92.309 C 245.543 76.759,220.531 69.431,190.370 71.738 M205.367 80.380 C 273.262 85.275,286.391 147.852,232.882 211.521 C 154.315 305.006,9.133 320.599,9.099 235.556 C 9.073 169.487,101.172 88.522,185.185 80.757 C 193.962 79.946,198.240 79.866,205.367 80.380 M169.160 118.142 C 110.289 123.863,47.953 182.116,55.357 224.489 C 63.256 269.690,142.805 260.699,192.640 208.972 C 237.454 162.457,224.605 112.754,169.160 118.142 M294.918 179.000 C 356.177 220.279,397.254 264.538,389.986 281.432 C 382.511 298.808,326.733 281.292,261.852 241.194 C 251.703 234.922,252.010 235.568,256.495 229.907 C 260.440 224.928,259.871 224.936,267.888 229.762 C 320.133 261.219,357.710 267.477,344.556 242.530 C 337.582 229.303,315.870 208.905,289.259 190.581 C 283.027 186.289,282.587 185.885,282.604 184.466 C 282.637 181.622,285.676 173.704,286.735 173.704 C 286.913 173.704,290.595 176.087,294.918 179.000 " stroke="none" fill="#fc043c" fill-rule="evenodd"></path></g></svg>