<svg id="svg" xmlns="http://www.w3.org/2000/svg" xmlns:xlink="http://www.w3.org/1999/xlink" width="400" height="400" viewBox="0, 0, 400,400"><g id="svgg"><path id="path0" d="M55.370 52.218 C 46.886 53.558,40.996 61.112,40.707 71.026 C 40.636 73.454,41.416 76.023,57.496 126.323 C 66.771 155.336,74.553 179.886,74.789 180.879 C 75.869 185.415,79.255 189.530,83.602 191.589 L 86.111 192.778 222.500 192.872 C 297.593 192.924,358.889 192.825,358.889 192.651 C 358.889 191.978,354.691 188.260,352.314 186.828 C 348.422 184.483,67.956 54.059,64.815 53.133 C 61.518 52.162,57.928 51.814,55.370 52.218 M85.292 207.728 C 80.073 209.531,76.023 213.924,74.792 219.117 C 74.556 220.112,66.767 244.676,57.484 273.704 C 41.243 324.482,40.607 326.578,40.699 329.026 C 41.228 343.198,52.325 351.186,65.428 346.825 C 67.917 345.997,348.435 215.477,351.786 213.588 C 354.736 211.925,358.889 208.402,358.889 207.562 C 358.889 206.647,87.944 206.812,85.292 207.728 " stroke="none" fill="#000000" fill-rule="evenodd"></path></g></svg>