<svg id="svg" xmlns="http://www.w3.org/2000/svg" xmlns:xlink="http://www.w3.org/1999/xlink" width="400" height="400" viewBox="0, 0, 400,400"><g id="svgg"><path id="path0" d="M147.963 64.002 C 135.520 68.291,135.861 67.567,137.967 85.199 C 140.331 104.988,140.556 103.728,133.761 108.766 C 123.627 116.281,115.689 124.222,108.405 134.130 C 104.171 139.889,104.915 139.764,87.539 137.636 C 71.531 135.676,71.356 135.667,69.693 136.680 C 67.727 137.879,62.963 148.794,62.963 152.101 C 62.963 153.872,63.703 154.564,76.111 164.390 C 90.211 175.556,89.830 174.952,88.421 183.889 C 86.824 194.019,86.874 206.031,88.562 217.447 C 89.862 226.242,90.432 225.375,75.820 236.834 C 64.531 245.686,63.333 246.824,63.333 248.692 C 63.333 250.727,67.526 260.861,69.303 263.120 C 70.783 265.001,71.311 265.001,87.526 263.140 L 102.500 261.421 104.429 262.251 C 106.093 262.967,106.746 263.596,109.169 266.818 C 116.898 277.095,125.626 285.574,135.905 292.789 C 141.105 296.439,141.070 296.204,139.061 314.175 C 137.013 332.482,136.700 331.809,149.170 335.872 C 155.696 337.999,155.035 338.451,166.151 324.259 C 177.015 310.389,176.785 310.548,184.262 311.659 C 194.204 313.135,207.141 313.047,217.219 311.435 C 228.219 309.676,226.592 308.791,238.144 322.804 C 249.915 337.081,248.946 336.490,256.046 333.709 C 267.546 329.204,267.141 330.221,264.754 311.839 C 262.338 293.240,262.059 294.445,270.192 288.335 C 274.361 285.204,285.186 274.304,289.062 269.335 C 294.227 262.712,293.277 262.879,311.542 265.393 C 327.512 267.591,327.553 267.591,329.158 265.320 C 330.437 263.511,332.823 258.487,334.035 255.053 C 335.958 249.602,336.644 250.543,321.664 238.082 C 309.533 227.992,309.505 227.949,310.765 221.450 C 313.027 209.780,313.296 194.758,311.448 183.256 C 310.548 177.649,310.624 177.554,325.329 166.122 C 339.238 155.309,338.762 156.226,335.161 147.163 C 331.305 137.454,332.343 137.851,315.556 139.660 C 295.410 141.831,297.432 142.384,290.389 132.778 C 284.273 124.436,276.240 116.316,267.963 110.106 C 261.391 105.176,261.554 106.113,263.895 86.778 C 265.639 72.374,265.653 71.869,264.329 70.275 C 262.872 68.519,251.930 63.704,249.397 63.704 C 247.475 63.704,246.189 65.019,238.089 75.270 C 225.720 90.922,226.723 90.196,219.237 88.917 C 207.484 86.910,193.725 86.826,182.037 88.692 C 175.827 89.684,175.787 89.653,164.574 75.325 C 153.366 61.004,154.472 61.758,147.963 64.002 M209.736 112.776 C 282.421 121.278,313.758 209.703,262.479 261.602 C 207.258 317.490,112.125 278.195,112.443 199.630 C 112.654 147.424,158.217 106.749,209.736 112.776 M191.852 153.547 C 154.205 160.372,139.729 206.510,166.793 233.416 C 191.521 258.001,233.764 248.003,244.781 214.959 C 255.954 181.445,226.497 147.266,191.852 153.547 M205.370 175.376 C 220.910 178.663,229.541 196.083,222.801 210.556 C 213.250 231.064,183.583 229.560,176.180 208.192 C 169.838 189.889,186.330 171.349,205.370 175.376 " stroke="none" fill="#000000" fill-rule="evenodd"></path></g></svg>